<svg t="1755759165250" class="icon" viewBox="0 0 1092 1024" version="1.1" xmlns="http://www.w3.org/2000/svg" p-id="5276" width="200" height="200"><path d="M955.733333 341.333333v314.026667c0 40.96-27.306667 68.266667-68.266666 68.266667H669.013333l-184.32 136.533333v-136.533333H204.8c-40.96 0-68.266667-27.306667-68.266667-68.266667V273.066667c0-40.96 27.306667-68.266667 68.266667-68.266667h409.6V102.4H170.666667c-75.093333 0-136.533333 61.44-136.533334 136.533333V682.666667c0 75.093333 61.44 136.533333 136.533334 136.533333h225.28l6.826666 88.746667c0 13.653333 6.826667 27.306667 13.653334 40.96 20.48 27.306667 68.266667 34.133333 95.573333 13.653333l177.493333-136.533333h225.28c75.093333 0 136.533333-61.44 136.533334-136.533334V341.333333H955.733333z" fill="#ffffff" p-id="5277"></path><path d="M839.68 286.72h102.4V204.8H1024V102.4h-81.92V13.653333h-102.4v88.746667H750.933333V204.8h88.746667z" fill="#ffffff" p-id="5278"></path></svg>